#!OML:ASF H:\BabyWalks\Project 1\Capture day 1\Session 1\baby.ASF
:FULLY-SPECIFIED
:DEGREES
391
root 3.91549 17.8099 -20.6728 16.1405 77.756 8.53204
lowerback 23.1496 -4.71959 -7.68115
upperback 5.35261 -7.62141 -0.660712
thorax -5.97944 -3.46833 5.65102
lowerneck -5.17066 -4.90156 -1.07762
upperneck -0.943729 -6.54254 8.06085
head 0.920919 -3.16803 2.57428
rclavicle -8.0309e-014 1.98785e-014
rhumerus -63.0041 16.8905 -88.5582
rradius 42.472
rwrist -2.38084
rhand -5.21807 -13.6399
rfingers 7.12502
rthumb 20.5839 -42.5685
lclavicle -8.0309e-014 1.98785e-014
lhumerus -13.038 -14.4266 57.2822
lradius 74.7311
lwrist -6.83593
lhand -7.48397 6.83292
lfingers 7.12502
lthumb 18.4053 35.9822
rfemur -35.3337 6.45316 15.894
rtibia 33.9448
rfoot -14.2235 5.13895
rtoes -1.12659
lfemur -3.66807 -3.29431 -12.9235
ltibia 23.3002
lfoot -21.8365 -20.8963
ltoes -1.29768
392
root 4.07619 17.8162 -20.6044 17.2951 77.9193 9.67721
lowerback 23.0244 -4.86423 -7.49376
upperback 5.24286 -7.75483 -0.445812
thorax -6.01195 -3.53538 5.80651
lowerneck -5.25484 -4.91153 -1.09491
upperneck -0.812749 -6.56062 7.60066
head 0.958611 -3.17918 2.42134
rclavicle 4.65156e-014 -1.82882e-014
rhumerus -62.8365 16.6851 -87.8901
rradius 42.5033
rwrist -2.81471
rhand -5.29809 -13.8118
rfingers 7.12502
rthumb 20.507 -42.7488
lclavicle 4.65156e-014 -1.82882e-014
lhumerus -13.2367 -14.8935 57.2747
lradius 75.7192
lwrist -6.62461
lhand -7.37668 7.13148
lfingers 7.12502
lthumb 18.5085 36.271
rfemur -35.0546 6.11967 16.0074
rtibia 33.3786
rfoot -13.2697 3.48287
rtoes 0.860084
lfemur -3.10725 -3.30285 -12.9753
ltibia 23.0807
lfoot -21.06 -21.4609
ltoes -1.68872
393
root 4.23739 17.8167 -20.5339 18.6281 78.0877 11.0457
lowerback 22.9197 -4.99658 -7.32477
upperback 5.13579 -7.87808 -0.242868
thorax -6.05217 -3.59637 5.95852
lowerneck -5.34175 -4.9511 -1.1217
upperneck -0.666734 -6.61757 7.15266
head 1.00405 -3.2097 2.2736
rclavicle 4.53229e-014 -2.46493e-014
rhumerus -62.6536 16.4623 -87.2348
rradius 42.5037
rwrist -3.18577
rhand -5.40181 -13.9507
rfingers 7.12502
rthumb 20.4073 -42.8984
lclavicle 4.53229e-014 -2.46493e-014
lhumerus -13.5041 -15.3587 57.3343
lradius 76.605
lwrist -6.37026
lhand -7.25409 7.40572
lfingers 7.12502
lthumb 18.6264 36.534
rfemur -34.7106 5.71215 16.1359
rtibia 33.0535
rfoot -12.2328 2.03999
rtoes 2.9499
lfemur -2.66169 -3.24025 -13.0314
ltibia 23.1419
lfoot -20.2249 -22.1948
ltoes -1.95338
394
root 4.39853 17.8116 -20.4614 20.1713 78.2593 12.6704
lowerback 22.8397 -5.11784 -7.18578
upperback 5.03503 -7.99512 -0.0529411
thorax -6.09617 -3.65325 6.1136
lowerneck -5.44413 -5.01952 -1.15738
upperneck -0.502751 -6.7124 6.71976
head 1.06021 -3.25881 2.1314
rclavicle -1.35174e-014 -2.54444e-014
rhumerus -62.4455 16.2292 -86.595
rradius 42.4682
rwrist -3.48393
rhand -5.52647 -14.0552
rfingers 7.12502
rthumb 20.2875 -43.0157
lclavicle -1.35174e-014 -2.54444e-014
lhumerus -13.842 -15.8038 57.4655
lradius 77.3905
lwrist -6.06638
lhand -7.12275 7.63983
lfingers 7.12502
lthumb 18.7528 36.7559
rfemur -34.3094 5.25726 16.2551
rtibia 32.956
rfoot -11.2679 0.9297
rtoes 4.8324
lfemur -2.3458 -3.106 -13.0917
ltibia 23.5093
lfoot -19.3192 -23.093
ltoes -2.16247
395
root 4.55847 17.8024 -20.3865 21.937 78.4389 14.555
lowerback 22.7903 -5.22939 -7.07285
upperback 4.9351 -8.10762 0.124214
thorax -6.15342 -3.70623 6.27158
lowerneck -5.54332 -5.11423 -1.19137
upperneck -0.337502 -6.84093 6.29649
head 1.11749 -3.32526 1.99167
rclavicle -2.50469e-014 -1.90833e-014
rhumerus -62.2154 15.9798 -85.9734
rradius 42.3983
rwrist -3.70237
rhand -5.65904 -14.1365
rfingers 7.12502
rthumb 20.1601 -43.1105
lclavicle -2.50469e-014 -1.90833e-014
lhumerus -14.2304 -16.2365 57.6634
lradius 78.0557
lwrist -5.71664
lhand -7.00466 7.83094
lfingers 7.12502
lthumb 18.8663 36.936
rfemur -33.8704 4.80947 16.3339
rtibia 33.0784
rfoot -10.4641 0.0522302
rtoes 6.29757
lfemur -2.18997 -2.9191 -13.1476
ltibia 24.1979
lfoot -18.2895 -24.143
ltoes -2.26943
396
root 4.71673 17.7898 -20.3097 23.866 78.6186 16.6332
lowerback 22.7722 -5.3312 -6.9775
upperback 4.83451 -8.21342 0.292708
thorax -6.22683 -3.75421 6.4322
lowerneck -5.62241 -5.22745 -1.2249
upperneck -0.194087 -6.99157 5.88793
head 1.16527 -3.40379 1.85716
rclavicle 1.17681e-013 1.11319e-014
rhumerus -61.9643 15.7258 -85.3757
rradius 42.2919
rwrist -3.83725
rhand -5.81295 -14.1955
rfingers 7.12502
rthumb 20.0122 -43.185
lclavicle 1.17681e-013 1.11319e-014
lhumerus -14.6962 -16.6486 57.9338
lradius 78.6223
lwrist -5.32933
lhand -6.88124 7.99925
lfingers 7.12502
lthumb 18.985 37.0927
rfemur -33.4267 4.41516 16.3606
rtibia 33.4162
rfoot -9.90635 -0.47299
rtoes 7.48362
lfemur -2.2084 -2.70571 -13.1867
ltibia 25.2161
lfoot -17.1035 -25.302
ltoes -2.31252
